<?xml version="1.0" encoding="utf-8"?>
<!-- Generator: Adobe Illustrator 16.0.0, SVG Export Plug-In . SVG Version: 6.00 Build 0)  -->
<!DOCTYPE svg PUBLIC "-//W3C//DTD SVG 1.1//EN" "http://www.w3.org/Graphics/SVG/1.1/DTD/svg11.dtd">
<svg version="1.1" id="Layer_1" xmlns="http://www.w3.org/2000/svg" xmlns:xlink="http://www.w3.org/1999/xlink" x="0px" y="0px"
	 width="560px" height="560px" viewBox="0 0 560 560" enable-background="new 0 0 560 560" xml:space="preserve">
<g id="Compass_Rose">
	<g>
		<path fill="#FFFFFF" d="M375.73,313.628l116.769-32.121L375.73,249.384c-9.984-29.766-33.445-53.328-63.151-63.449L280,67.5
			l-32.572,118.435c-29.707,10.122-53.167,33.684-63.151,63.449L67.501,281.507l116.772,32.121
			c10.085,30.073,33.929,53.813,64.063,63.761L280,492.5l31.659-115.111C341.8,367.441,365.646,343.701,375.73,313.628z
			 M279.465,349.496c-37.547,0-67.991-30.438-67.991-67.989c0-37.553,30.444-67.99,67.991-67.99
			c37.551,0,67.992,30.437,67.992,67.99C347.457,319.059,317.016,349.496,279.465,349.496z"/>
	</g>
</g>
<g>
	<path fill="#FFFFFF" d="M280,18C135.302,18,18,135.302,18,280c0,144.7,117.302,262,262,262c144.7,0,262-117.3,262-262
		C542,135.302,424.7,18,280,18z M280,493.5c-117.913,0-213.5-95.588-213.5-213.5c0-117.913,95.587-213.5,213.5-213.5
		c117.912,0,213.5,95.587,213.5,213.5C493.5,397.912,397.912,493.5,280,493.5z"/>
</g>
</svg>
