<?xml version="1.0"?><svg width="640" height="480" xmlns="http://www.w3.org/2000/svg">
 <g>
  <title>Layer 1</title>
  <path id="svg_1" d="m3,161c205.666672,0.666672 412.333344,8.333328 635,-40" stroke-width="5" stroke="#3f3f3f" fill="none"/>
  <path id="svg_2" d="m15,194c205.666672,0.666672 412.333344,8.333328 635,-40" stroke-width="5" stroke="#3f3f3f" fill="none"/>
  <path id="svg_3" d="m18,221c205.666672,0.666672 412.333344,8.333328 635,-40" stroke-width="5" stroke="#3f3f3f" fill="none"/>
  <g transform="rotate(17.225017547607422 367.5065307617186,134.98876953124991) " id="g3">
   <path fill-rule="evenodd" clip-rule="evenodd" id="path5" d="m381.190735,158.346954c-0.296295,-1.843689 -1.835236,-2.989883 -1.946899,-4.849945c1.473389,0.477554 2.526276,0.974457 3.931213,1.273956c1.507843,0.321564 2.494385,-0.473785 3.556702,0.739929c-0.242432,-2.282501 -3.619171,-1.227936 -4.867126,-2.178406c1.055176,0.137894 1.233551,-1.387634 2.246338,-0.123077c-0.628601,-2.069153 -2.971191,-0.263123 -4.230621,-0.740143c-0.982513,-0.371796 -1.881226,-1.649689 -2.583099,-2.507019c-1.312653,-1.602631 -2.902557,-3.198135 -3.968445,-5.01445c0.787842,-0.07695 1.615814,-0.050461 2.396027,0.041c-0.020721,0.118347 -0.060364,0.213562 -0.074768,0.36972c0.883301,-0.647369 0.920685,0.13092 1.272858,0.287811c0.881042,0.392426 1.503632,0.436462 2.470947,0.452118c1.965027,0.031784 2.035919,0.373962 3.1073,1.849548c0.587616,0.809204 1.958557,1.222977 1.347778,2.301865c1.779572,-0.909042 -1.176575,-3.019577 -1.347778,-4.151413c1.43631,0.341797 6.752991,0.985626 7.300507,2.137329c0.062958,-1.956299 -3.426758,-2.192581 -4.717255,-2.301651c0,-0.02739 0,-0.055099 0,-0.08226c0.037384,0.013489 0.050018,0 0.037384,-0.041229c1.04483,-0.145844 1.883789,-1.218323 2.658203,-0.287628c-0.24115,-1.7854 -2.241486,-0.605957 -2.920227,-0.411072c-1.496002,0.429581 -2.353943,-0.498138 -3.968414,-0.780792c7.172485,-1.062378 14.144653,-7.442474 14.226532,-15.906433c0.03125,-3.24572 -1.166687,-6.603737 0.299408,-9.617813c1.163452,-2.39193 3.512054,-2.814392 5.615784,-3.781372c-1.398926,-1.583427 -3.869049,-0.556221 -5.428528,-1.192047c-0.912598,-0.372009 -1.938995,-1.208221 -2.957581,-1.479683c-2.714355,-0.723228 -5.172394,0.311073 -7.300537,2.096138c-1.464813,1.228653 -2.625031,2.977303 -4.230621,3.986916c-2.052765,1.290833 -4.675842,1.67971 -6.888641,2.630516c-2.314789,0.994858 -4.336151,2.444344 -6.701569,3.2882c-2.347778,0.837631 -4.728912,1.690186 -6.926025,2.959351c-2.412018,1.393333 -4.779877,1.468132 -7.450226,1.972862c-1.367523,0.258469 -4.116516,0.440399 -4.792175,1.849716c1.438568,0.344284 3.058563,0.547531 4.567566,0.945297c-4.541504,0 -9.16684,0.837097 -13.702362,1.33577c-1.353119,0.148697 -3.518677,-0.338058 -4.268005,0.965897c-0.224457,0.390671 -0.066345,1.195099 0.187256,1.397614c-0.652374,0.792862 0.080444,1.085831 0.823761,0.945297c-1.985443,0.127029 -1.832672,1.162216 -0.074921,1.150864c3.316833,-0.021881 6.8367,-0.748291 10.183014,-1.027557c2.11261,-0.176422 4.221375,-0.364563 6.327362,-0.595856c1.14325,-0.125778 2.46402,0.69516 3.593964,1.007111c2.237701,0.617889 5.178314,0.262207 6.813721,1.890594c2.605896,2.594818 5.42157,4.086212 8.348877,5.384506c1.305237,0.578979 5.561249,4.895966 5.802887,6.740555c0.020569,0.156143 0.200348,0.422638 0.261993,0.575592c-1.251312,0.064667 -4.672089,-1.989532 -4.642303,0.575073c1.048706,-1.391571 1.27301,-0.152069 2.021667,0.205353c0.551392,0.263458 1.368835,0.235413 1.946747,0.411102c1.409149,0.428513 1.723419,0.950989 2.620667,2.466187c0.59848,1.010498 1.335815,1.977646 2.021667,2.83606"/>
  </g>
  <g id="svg_4" transform="rotate(4.4802985191345215 333.61694335937534,140.17561340332023) ">
   <path id="svg_5" fill-rule="evenodd" clip-rule="evenodd" d="m348.069794,164.845795c-0.312958,-1.94725 -1.938324,-3.157837 -2.056274,-5.12236c1.556152,0.504364 2.668182,1.029175 4.152039,1.34552c1.592529,0.3396 2.634491,-0.500412 3.75647,0.781479c-0.256042,-2.410706 -3.822449,-1.296906 -5.140503,-2.300751c1.114441,0.145615 1.302826,-1.465607 2.372498,-0.13002c-0.663879,-2.185364 -3.138092,-0.277893 -4.468262,-0.781693c-1.037689,-0.392685 -1.986877,-1.742355 -2.728149,-2.647858c-1.386414,-1.692627 -3.065613,-3.377762 -4.191345,-5.296097c0.832062,-0.081253 1.706543,-0.053299 2.530609,0.043335c-0.021912,0.124969 -0.063782,0.225525 -0.078979,0.390457c0.932922,-0.683746 0.972412,0.13829 1.34436,0.30397c0.930511,0.414474 1.588074,0.460999 2.609741,0.477524c2.075378,0.033569 2.150238,0.394958 3.281799,1.95343c0.620636,0.854675 2.068573,1.291672 1.423492,2.431168c1.879547,-0.960114 -1.242645,-3.189194 -1.423492,-4.384598c1.516998,0.360992 7.132324,1.040985 7.710602,2.257401c0.066467,-2.066208 -3.619232,-2.31575 -4.982239,-2.430954c0,-0.028915 0,-0.058182 0,-0.086884c0.03949,0.014267 0.052826,0 0.03949,-0.043518c1.103516,-0.154053 1.989594,-1.286789 2.807495,-0.303787c-0.2547,-1.885712 -2.367371,-0.640015 -3.084229,-0.434189c-1.580048,0.453705 -2.486145,-0.526108 -4.191345,-0.824631c7.575378,-1.122055 14.939148,-7.860504 15.025635,-16.79985c0.03299,-3.428055 -1.232239,-6.974686 0.316223,-10.158051c1.228821,-2.526283 3.70932,-2.972473 5.931213,-3.993767c-1.477509,-1.672363 -4.086365,-0.587463 -5.733429,-1.259003c-0.963867,-0.392899 -2.047913,-1.276093 -3.123718,-1.56279c-2.866821,-0.763847 -5.462921,0.328545 -7.710602,2.213875c-1.547089,1.297661 -2.772461,3.144531 -4.468262,4.210846c-2.16803,1.363342 -4.938446,1.774063 -7.275543,2.778259c-2.444794,1.050751 -4.579712,2.58165 -7.078003,3.472916c-2.479645,0.884674 -4.994507,1.78511 -7.315033,3.125565c-2.547485,1.471603 -5.04837,1.550598 -7.868683,2.083664c-1.444336,0.272995 -4.347717,0.465134 -5.06134,1.953613c1.519379,0.363647 3.230347,0.578293 4.824097,0.998398c-4.7966,0 -9.681732,0.884125 -14.471985,1.410812c-1.429138,0.157043 -3.716339,-0.357071 -4.507751,1.020142c-0.23703,0.412613 -0.070068,1.262207 0.197784,1.47612c-0.689026,0.837387 0.084961,1.146805 0.870026,0.998398c-2.096954,0.13414 -1.935577,1.227478 -0.079132,1.215485c3.503143,-0.023102 7.220703,-0.790314 10.754974,-1.085281c2.231293,-0.18631 4.458496,-0.38501 6.68277,-0.629333c1.207458,-0.132828 2.602417,0.734222 3.795837,1.063705c2.363403,0.652573 5.469177,0.276932 7.196411,1.996796c2.752289,2.740555 5.726105,4.31572 8.817841,5.68692c1.378571,0.611511 5.873627,5.170975 6.128815,7.119156c0.021729,0.164932 0.211609,0.446396 0.276733,0.607941c-1.321625,0.068283 -4.93454,-2.101288 -4.903076,0.607361c1.107635,-1.469711 1.344513,-0.160599 2.135223,0.216904c0.582367,0.278259 1.445709,0.248627 2.056091,0.434189c1.488281,0.452576 1.820251,1.004395 2.767853,2.604706c0.632111,1.067261 1.410858,2.08873 2.135254,2.995361"/>
  </g>
  <g id="svg_6" transform="rotate(-0.744306743144989 404.506530761722,138.9887695312525) ">
   <path id="svg_7" fill-rule="evenodd" clip-rule="evenodd" d="m418.190735,162.346954c-0.296295,-1.843689 -1.835236,-2.989883 -1.946899,-4.849945c1.473389,0.477554 2.526276,0.974457 3.931213,1.273956c1.507843,0.321564 2.494385,-0.473785 3.556702,0.739929c-0.242432,-2.282501 -3.619171,-1.227936 -4.867126,-2.178406c1.055176,0.137894 1.233551,-1.387634 2.246338,-0.123077c-0.628601,-2.069153 -2.971191,-0.263123 -4.230621,-0.740143c-0.982513,-0.371796 -1.881226,-1.649689 -2.583099,-2.507019c-1.312653,-1.602631 -2.902557,-3.198135 -3.968445,-5.01445c0.787842,-0.07695 1.615814,-0.050461 2.396027,0.041c-0.020721,0.118347 -0.060364,0.213562 -0.074768,0.36972c0.883301,-0.647369 0.920685,0.13092 1.272858,0.287811c0.881042,0.392426 1.503632,0.436462 2.470947,0.452118c1.965027,0.031784 2.035919,0.373962 3.1073,1.849548c0.587616,0.809204 1.958557,1.222977 1.347778,2.301865c1.779572,-0.909042 -1.176575,-3.019577 -1.347778,-4.151413c1.43631,0.341797 6.752991,0.985626 7.300507,2.137329c0.062958,-1.956299 -3.426758,-2.192581 -4.717255,-2.301651c0,-0.02739 0,-0.055099 0,-0.08226c0.037384,0.013489 0.050018,0 0.037384,-0.041229c1.04483,-0.145844 1.883789,-1.218323 2.658203,-0.287628c-0.24115,-1.7854 -2.241486,-0.605957 -2.920227,-0.411072c-1.496002,0.429581 -2.353943,-0.498138 -3.968414,-0.780792c7.172485,-1.062378 14.144653,-7.442474 14.226532,-15.906433c0.03125,-3.245728 -1.166687,-6.603745 0.299408,-9.617813c1.163452,-2.391922 3.512054,-2.814392 5.615784,-3.781372c-1.398926,-1.58342 -3.869049,-0.556229 -5.428528,-1.192047c-0.912598,-0.372009 -1.938995,-1.208221 -2.957581,-1.479691c-2.714355,-0.723221 -5.172394,0.311081 -7.300537,2.096161c-1.464813,1.228638 -2.625031,2.977295 -4.230621,3.986908c-2.052765,1.290817 -4.675842,1.679703 -6.888641,2.630508c-2.314789,0.994873 -4.336151,2.444351 -6.701569,3.288193c-2.347778,0.837646 -4.728912,1.690186 -6.926025,2.959351c-2.412018,1.393341 -4.779877,1.46814 -7.450226,1.97287c-1.367523,0.258469 -4.116516,0.440399 -4.792175,1.849716c1.438568,0.344284 3.058563,0.547531 4.567566,0.945297c-4.541504,0 -9.16684,0.837097 -13.702362,1.33577c-1.353119,0.148697 -3.518677,-0.338058 -4.268005,0.965897c-0.224457,0.390671 -0.066345,1.195099 0.187256,1.397614c-0.652374,0.792862 0.080444,1.085831 0.823761,0.945297c-1.985443,0.127029 -1.832672,1.162216 -0.074921,1.150864c3.316833,-0.021881 6.8367,-0.748291 10.183014,-1.027557c2.11261,-0.176422 4.221375,-0.364563 6.327362,-0.595856c1.14325,-0.125778 2.46402,0.69516 3.593964,1.007111c2.237701,0.617889 5.178314,0.262207 6.813721,1.890594c2.605896,2.594818 5.42157,4.086212 8.348877,5.384506c1.305237,0.578979 5.561249,4.895966 5.802887,6.740555c0.020569,0.156143 0.200348,0.422638 0.261993,0.575592c-1.251312,0.064667 -4.672089,-1.989532 -4.642303,0.575073c1.048706,-1.391571 1.27301,-0.152069 2.021667,0.205353c0.551392,0.263458 1.368835,0.235413 1.946747,0.411102c1.409149,0.428513 1.723419,0.950989 2.620667,2.466187c0.59848,1.010498 1.335815,1.977646 2.021667,2.83606"/>
  </g>
  <g id="svg_8" transform="rotate(17.225017547607422 261.50653076171864,140.98876953124997) ">
   <path id="svg_9" fill-rule="evenodd" clip-rule="evenodd" d="m275.190735,164.346954c-0.296295,-1.843689 -1.835236,-2.989883 -1.946899,-4.849945c1.473389,0.477554 2.526276,0.974457 3.931213,1.273956c1.507843,0.321564 2.494385,-0.473785 3.556702,0.739929c-0.242432,-2.282501 -3.619171,-1.227936 -4.867126,-2.178406c1.055176,0.137894 1.233551,-1.387634 2.246338,-0.123077c-0.628601,-2.069153 -2.971191,-0.263123 -4.230621,-0.740143c-0.982513,-0.371796 -1.881226,-1.649689 -2.583099,-2.507019c-1.312653,-1.602631 -2.902557,-3.198135 -3.968445,-5.01445c0.787842,-0.07695 1.615814,-0.050461 2.396027,0.041c-0.020721,0.118347 -0.060364,0.213562 -0.074768,0.36972c0.883301,-0.647369 0.920685,0.13092 1.272858,0.287811c0.881042,0.392426 1.503632,0.436462 2.470947,0.452118c1.965027,0.031784 2.035919,0.373962 3.1073,1.849548c0.587616,0.809204 1.958557,1.222977 1.347778,2.301865c1.779572,-0.909042 -1.176575,-3.019577 -1.347778,-4.151413c1.43631,0.341797 6.752991,0.985626 7.300507,2.137329c0.062958,-1.956299 -3.426758,-2.192581 -4.717255,-2.301651c0,-0.02739 0,-0.055099 0,-0.08226c0.037384,0.013489 0.050018,0 0.037384,-0.041229c1.04483,-0.145844 1.883789,-1.218323 2.658203,-0.287628c-0.24115,-1.7854 -2.241486,-0.605957 -2.920227,-0.411072c-1.496002,0.429581 -2.353943,-0.498138 -3.968414,-0.780792c7.172485,-1.062378 14.144653,-7.442474 14.226532,-15.906433c0.03125,-3.245728 -1.166687,-6.603745 0.299408,-9.617813c1.163452,-2.391922 3.512054,-2.814392 5.615784,-3.781372c-1.398926,-1.58342 -3.869049,-0.556229 -5.428528,-1.192047c-0.912598,-0.372009 -1.938995,-1.208221 -2.957581,-1.479691c-2.714355,-0.723221 -5.172394,0.311081 -7.300537,2.096161c-1.464813,1.228638 -2.625031,2.977295 -4.230621,3.986908c-2.052765,1.290817 -4.675842,1.679703 -6.888641,2.630508c-2.314789,0.994873 -4.336151,2.444351 -6.701569,3.288193c-2.347778,0.837646 -4.728912,1.690186 -6.926025,2.959351c-2.412018,1.393341 -4.779877,1.46814 -7.450226,1.97287c-1.367523,0.258469 -4.116516,0.440399 -4.792175,1.849716c1.438568,0.344284 3.058563,0.547531 4.567566,0.945297c-4.541504,0 -9.16684,0.837097 -13.702362,1.33577c-1.353119,0.148697 -3.518677,-0.338058 -4.268005,0.965897c-0.224457,0.390671 -0.066345,1.195099 0.187256,1.397614c-0.652374,0.792862 0.080444,1.085831 0.823761,0.945297c-1.985443,0.127029 -1.832672,1.162216 -0.074921,1.150864c3.316833,-0.021881 6.8367,-0.748291 10.183014,-1.027557c2.11261,-0.176422 4.221375,-0.364563 6.327362,-0.595856c1.14325,-0.125778 2.46402,0.69516 3.593964,1.007111c2.237701,0.617889 5.178314,0.262207 6.813721,1.890594c2.605896,2.594818 5.42157,4.086212 8.348877,5.384506c1.305237,0.578979 5.561249,4.895966 5.802887,6.740555c0.020569,0.156143 0.200348,0.422638 0.261993,0.575592c-1.251312,0.064667 -4.672089,-1.989532 -4.642303,0.575073c1.048706,-1.391571 1.27301,-0.152069 2.021667,0.205353c0.551392,0.263458 1.368835,0.235413 1.946747,0.411102c1.409149,0.428513 1.723419,0.950989 2.620667,2.466187c0.59848,1.010498 1.335815,1.977646 2.021667,2.83606"/>
  </g>
  <g id="svg_10" transform="rotate(8.042329788208008 227.616943359375,146.1756134033204) ">
   <path id="svg_11" fill-rule="evenodd" clip-rule="evenodd" d="m242.069794,170.845795c-0.312958,-1.94725 -1.938324,-3.157837 -2.056274,-5.12236c1.556152,0.504364 2.668182,1.029175 4.152039,1.34552c1.592529,0.3396 2.634491,-0.500412 3.75647,0.781479c-0.256042,-2.410706 -3.822449,-1.296906 -5.140503,-2.300751c1.114441,0.145615 1.302826,-1.465607 2.372498,-0.13002c-0.663879,-2.185364 -3.138092,-0.277893 -4.468262,-0.781693c-1.037689,-0.392685 -1.986877,-1.742355 -2.728149,-2.647858c-1.386414,-1.692627 -3.065613,-3.377762 -4.191345,-5.296097c0.832062,-0.081253 1.706543,-0.053299 2.530609,0.043335c-0.021912,0.124969 -0.063782,0.225525 -0.078979,0.390457c0.932922,-0.683746 0.972412,0.13829 1.34436,0.30397c0.930511,0.414474 1.588074,0.460999 2.609741,0.477524c2.075378,0.033569 2.150238,0.394958 3.281799,1.95343c0.620636,0.854675 2.068573,1.291672 1.423492,2.431168c1.879547,-0.960114 -1.242645,-3.189194 -1.423492,-4.384598c1.516998,0.360992 7.132324,1.040985 7.710602,2.257401c0.066467,-2.066208 -3.619232,-2.31575 -4.982239,-2.430954c0,-0.028915 0,-0.058182 0,-0.086884c0.03949,0.014267 0.052826,0 0.03949,-0.043518c1.103516,-0.154053 1.989594,-1.286789 2.807495,-0.303787c-0.2547,-1.885712 -2.367371,-0.640015 -3.084229,-0.434189c-1.580048,0.453705 -2.486145,-0.526108 -4.191345,-0.824631c7.575378,-1.122055 14.939148,-7.860504 15.025635,-16.79985c0.03299,-3.428055 -1.232239,-6.974686 0.316223,-10.158051c1.228821,-2.526276 3.70932,-2.972473 5.931213,-3.993774c-1.477509,-1.672363 -4.086365,-0.587463 -5.733429,-1.258987c-0.963867,-0.392899 -2.047913,-1.276108 -3.123718,-1.562805c-2.866821,-0.76384 -5.462921,0.328552 -7.710602,2.213867c-1.547089,1.297684 -2.772461,3.144547 -4.468262,4.210861c-2.16803,1.363342 -4.938446,1.774063 -7.275543,2.778259c-2.444794,1.050751 -4.579712,2.58165 -7.078003,3.472916c-2.479645,0.884674 -4.994507,1.78511 -7.315033,3.125565c-2.547485,1.471603 -5.04837,1.550598 -7.868683,2.083664c-1.444336,0.272995 -4.347717,0.465134 -5.06134,1.953613c1.519379,0.363647 3.230347,0.578293 4.824097,0.998398c-4.7966,0 -9.681732,0.884125 -14.471985,1.410812c-1.429138,0.157043 -3.716339,-0.357071 -4.507751,1.020142c-0.23703,0.412613 -0.070068,1.262207 0.197784,1.47612c-0.689026,0.837387 0.084961,1.146805 0.870026,0.998398c-2.096954,0.13414 -1.935577,1.227478 -0.079132,1.215485c3.503143,-0.023102 7.220703,-0.790314 10.754974,-1.085281c2.231293,-0.18631 4.458496,-0.38501 6.68277,-0.629333c1.207458,-0.132828 2.602417,0.734222 3.795837,1.063705c2.363403,0.652573 5.469177,0.276932 7.196411,1.996796c2.752289,2.740555 5.726105,4.31572 8.817841,5.68692c1.378571,0.611511 5.873627,5.170975 6.128815,7.119156c0.021729,0.164932 0.211609,0.446396 0.276733,0.607941c-1.321625,0.068283 -4.93454,-2.101288 -4.903076,0.607361c1.107635,-1.469711 1.344513,-0.160599 2.135223,0.216904c0.582367,0.278259 1.445709,0.248627 2.056091,0.434189c1.488281,0.452576 1.820251,1.004395 2.767853,2.604706c0.632111,1.067261 1.410858,2.08873 2.135254,2.995361"/>
  </g>
  <g id="svg_12" transform="rotate(-4.6631879806518555 298.5065307617186,144.9887695312495) ">
   <path id="svg_13" fill-rule="evenodd" clip-rule="evenodd" d="m312.190735,168.346954c-0.296295,-1.843689 -1.835236,-2.989883 -1.946899,-4.849945c1.473389,0.477554 2.526276,0.974457 3.931213,1.273956c1.507843,0.321564 2.494385,-0.473785 3.556702,0.739929c-0.242432,-2.282501 -3.619171,-1.227936 -4.867126,-2.178406c1.055176,0.137894 1.233551,-1.387634 2.246338,-0.123077c-0.628601,-2.069153 -2.971191,-0.263123 -4.230621,-0.740143c-0.982513,-0.371796 -1.881226,-1.649689 -2.583099,-2.507019c-1.312653,-1.602631 -2.902557,-3.198135 -3.968445,-5.01445c0.787842,-0.07695 1.615814,-0.050461 2.396027,0.041c-0.020721,0.118347 -0.060364,0.213562 -0.074768,0.36972c0.883301,-0.647369 0.920685,0.13092 1.272858,0.287811c0.881042,0.392426 1.503632,0.436462 2.470947,0.452118c1.965027,0.031784 2.035919,0.373962 3.1073,1.849548c0.587616,0.809204 1.958557,1.222977 1.347778,2.301865c1.779572,-0.909042 -1.176575,-3.019577 -1.347778,-4.151413c1.43631,0.341797 6.752991,0.985626 7.300507,2.137329c0.062958,-1.956299 -3.426758,-2.192581 -4.717255,-2.301651c0,-0.02739 0,-0.055099 0,-0.08226c0.037384,0.013489 0.050018,0 0.037384,-0.041229c1.04483,-0.145844 1.883789,-1.218323 2.658203,-0.287628c-0.24115,-1.7854 -2.241486,-0.605957 -2.920227,-0.411072c-1.496002,0.429581 -2.353943,-0.498138 -3.968414,-0.780792c7.172485,-1.062378 14.144653,-7.442474 14.226532,-15.906433c0.03125,-3.245728 -1.166687,-6.603745 0.299408,-9.617813c1.163452,-2.391922 3.512054,-2.814392 5.615784,-3.781372c-1.398926,-1.58342 -3.869049,-0.556229 -5.428528,-1.192047c-0.912598,-0.372009 -1.938995,-1.208221 -2.957581,-1.479691c-2.714355,-0.723221 -5.172394,0.311081 -7.300537,2.096161c-1.464813,1.228638 -2.625031,2.97731 -4.230621,3.986908c-2.052765,1.290817 -4.675842,1.679703 -6.888641,2.630508c-2.314789,0.994873 -4.336151,2.444351 -6.701569,3.288193c-2.347778,0.837646 -4.728912,1.690186 -6.926025,2.959351c-2.412018,1.393341 -4.779877,1.46814 -7.450226,1.97287c-1.367523,0.258469 -4.116516,0.440399 -4.792175,1.849716c1.438568,0.344284 3.058563,0.547531 4.567566,0.945297c-4.541504,0 -9.16684,0.837097 -13.702362,1.33577c-1.353119,0.148697 -3.518677,-0.338058 -4.268005,0.965897c-0.224457,0.390671 -0.066345,1.195099 0.187256,1.397614c-0.652374,0.792862 0.080444,1.085831 0.823761,0.945297c-1.985443,0.127029 -1.832672,1.162216 -0.074921,1.150864c3.316833,-0.021881 6.8367,-0.748291 10.183014,-1.027557c2.11261,-0.176422 4.221375,-0.364563 6.327362,-0.595856c1.14325,-0.125778 2.46402,0.69516 3.593964,1.007111c2.237701,0.617889 5.178314,0.262207 6.813721,1.890594c2.605896,2.594818 5.42157,4.086212 8.348877,5.384506c1.305237,0.578979 5.561249,4.895966 5.802887,6.740555c0.020569,0.156143 0.200348,0.422638 0.261993,0.575592c-1.251312,0.064667 -4.672089,-1.989532 -4.642303,0.575073c1.048706,-1.391571 1.27301,-0.152069 2.021667,0.205353c0.551392,0.263458 1.368835,0.235413 1.946747,0.411102c1.409149,0.428513 1.723419,0.950989 2.620667,2.466187c0.59848,1.010498 1.335815,1.977646 2.021667,2.83606"/>
  </g>
 </g>
</svg>