<?xml version="1.0" encoding="utf-8"?>
<!-- Generator: Adobe Illustrator 16.0.0, SVG Export Plug-In . SVG Version: 6.00 Build 0)  -->
<!DOCTYPE svg PUBLIC "-//W3C//DTD SVG 1.1//EN" "http://www.w3.org/Graphics/SVG/1.1/DTD/svg11.dtd">
<svg version="1.1" id="Layer_1" xmlns="http://www.w3.org/2000/svg" xmlns:xlink="http://www.w3.org/1999/xlink" x="0px" y="0px"
	 width="346px" height="308px" viewBox="0 0 346 308" enable-background="new 0 0 346 308" xml:space="preserve">
<g>
	<path fill="none" d="M148.628,225.052c-3.489,6.056,16.471,24.791,16.471,24.791C169.26,244.296,149.148,224.147,148.628,225.052z"
		/>
	<path fill="none" d="M160.419,227.998c0,0,0.519-15.28-5.549-14.921C148.802,213.435,160.419,227.998,160.419,227.998z"/>
	<path fill="none" d="M184.517,234.934c-7.109,0.868-7.628,17.509-7.628,17.509S191.625,234.066,184.517,234.934z"/>
	<path fill="none" d="M170.994,218.463c-1.178-0.128-2.001,0.272-2.561,1.031c-3.224,4.376,2.561,20.986,2.561,20.986
		S178.968,219.328,170.994,218.463z"/>
	<polygon fill="none" points="181,80 165,80 165,98 137,98 137,111 165,111 165,181 181,181 181,111 209,111 209,98 181,98 	"/>
	<path fill="none" d="M186.455,213.089c-0.998-0.121-1.849,0.701-2.572,2.025c-2.395,4.384-3.354,14.347-3.354,14.347
		S190.758,213.609,186.455,213.089z"/>
	<path fill="#FFFFFF" d="M324.6,103.865c0-2.775,4.681-12.655-13.176-7.109c-17.858,5.549-3.641-17.509-11.616-12.308
		c-7.976,5.201-0.347-16.124-8.668-10.577c-8.322,5.548-3.987-18.723-14.91-9.188s-3.641-4.161-12.309-4.334
		c-8.668-0.174,3.121-5.375,5.027-10.576s-12.482-5.894-15.257-11.269c-2.774-5.375-6.933,6.763-7.627-12.136
		c-0.694-18.897-11.442-5.201-12.136-6.241c-0.694-1.041-12.136-0.866-10.229,7.629c1.907,8.495-16.124,11.095-12.309,5.201
		c3.814-5.894-4.335-10.575-10.056-4.854c-5.721,5.721-5.027-3.641-7.628-7.977c-2.601-4.333-1.908-1.041-13.177,4.508
		c-11.269,5.548,0.867-10.575-6.735-12.655c-7.602-2.081-10.082,13.002-10.255,15.431c-0.174,2.427-10.922-7.456-14.91-5.375
		s-1.214,4.161-2.254,8.496c-1.04,4.333-10.402-7.282-12.136,4.854s-4.854-8.148-7.801-3.641c-2.948,4.507-4.161-19.244-8.842-9.882
		c-4.681,9.362-12.83-7.454-17.858-4.854c-5.027,2.601,3.294,9.015,2.427,10.402c-0.868,1.387-0.521,2.081-7.455-1.041
		c-6.935-3.121-3.122,12.309-3.122,12.309s1.907,12.829-4.507,7.976c-6.415-4.854-3.641,1.213-10.576,4.333
		c-6.935,3.121,17.163,12.483-0.347,13.003S57.261,74.393,57.261,74.393s3.121,15.777-4.333,8.149
		c-7.457-7.629-8.669,5.894-6.762,10.575c1.906,4.681-7.281,0.348-9.189,3.988c-1.905,3.641-3.467,2.428-10.055,3.813
		c-6.589,1.388-2.774,5.721-2.081,10.737c0.693,5.017-5.028,0.36-10.056,0.012c-5.027-0.347-0.521,7.455,2.773,14.563
		c3.294,7.107,4.681,1.386,9.536,6.934c4.854,5.549,7.454,2.773,8.148,2.948c0.694,0.172-0.346,2.253,2.774,4.681
		c3.121,2.426-5.201,2.948,1.387,6.589c6.587,3.641-6.415,3.815-0.174,10.402c6.241,6.589-10.575,12.483-11.269,9.882
		s-12.656,9.882-1.386,10.577c11.27,0.693-5.374,15.082,4.334,17.162s-6.762,16.991,5.895,12.482
		c12.656-4.506,6.934,1.215,10.229,5.896c3.294,4.681,5.721-7.456,7.108,0.173c1.388,7.627,5.375,7.455,8.322,7.109
		c2.948-0.347,3.294-0.695,4.681,3.813c1.388,4.506,1.908,3.468,10.75-1.213c8.842-4.681,10.055,2.426,11.095,2.426
		s-3.467,2.948,10.75,2.428c14.217-0.521-3.294-12.831,4.507-10.575c7.802,2.253,3.121-5.721,6.415-7.629
		c3.294-1.908,5.028,8.495,10.229,5.894s4.681-8.93,4.681-8.93c0.521-1.04,7.282,5.981,8.062,8.062s7.542,3.901,8.062,4.941
		c0.521,1.041-1.04,1.561,1.561,9.102s19.764,28.866,21.585,35.108c1.82,6.241-1.561,31.727-1.561,31.727s17.773,0.263,15.519-1.644
		c-2.254-1.907-1.906-28.263-1.906-28.263c14.911-19.592,11.963-38.661,17.511-41.089c0.916-0.4,2.001-1.053,3.176-1.842
		c7.125-0.675,14.358-11.91,17.109-13.067c3.294-1.388,1.56,4.333,7.628,3.986c6.068-0.345,7.628,1.561,14.737,1.735
		c7.109,0.173-1.04-7.282,3.467-10.75c4.507-3.468,15.083-1.387,12.135,5.374c-2.948,6.762,14.043-0.868,12.483,6.934
		c-1.561,7.802,8.495-0.347,15.257,5.029c6.762,5.374,13.697,0.172,12.483-4.681c-1.214-4.854,6.067-9.709,10.922-9.189
		c4.854,0.52,14.737-5.721,11.096-11.79c-3.641-6.066,3.119-18.204,4.506-19.764c1.388-1.561,1.907-14.911-5.375-13.176
		c-7.282,1.733-3.814-3.295-7.976-13.87c-4.161-10.575,3.641-0.521,5.201-13.351c1.561-12.83,4.681-1.56,12.83-6.241
		c8.149-4.681,5.722-9.188,8.842-15.949C336.046,107.853,324.6,106.638,324.6,103.865z M160.419,227.998
		c0,0-11.617-14.563-5.549-14.921C160.938,212.717,160.419,227.998,160.419,227.998z M165.099,249.842
		c0,0-19.959-18.734-16.471-24.791C149.148,224.147,169.26,244.296,165.099,249.842z M170.994,240.48c0,0-5.784-16.61-2.561-20.986
		c0.559-0.759,1.382-1.159,2.561-1.031C178.968,219.328,170.994,240.48,170.994,240.48z M176.889,252.443
		c0,0,0.519-16.642,7.628-17.509C191.625,234.066,176.889,252.443,176.889,252.443z M180.529,229.46c0,0,0.959-9.962,3.354-14.347
		c0.723-1.324,1.575-2.146,2.572-2.025C190.758,213.609,180.529,229.46,180.529,229.46z M209,111h-28v70h-16v-70h-28V98h28V80h16v18
		h28V111z"/>
</g>
<g>
</g>
</svg>
